<svg id="Layer_1" data-name="Layer 1" xmlns="http://www.w3.org/2000/svg" viewBox="0 0 108 107.64"><defs><style>.cls-1,.cls-3{fill:#396dff;}.cls-2,.cls-4{fill:none;}.cls-2{stroke:#000;stroke-linecap:round;stroke-linejoin:round;stroke-width:3px;}.cls-3{stroke:#396dff;stroke-miterlimit:10;}</style></defs><title>advocacy</title><polygon class="cls-1" points="20.29 89.4 89.72 89.4 72.63 100.56 53.02 103.73 41.06 102.22 28.09 96.2 20.29 89.4"/><path class="cls-2" d="M94.94,82.62a50.06,50.06,0,0,1-81.89,0"/><path class="cls-2" d="M5.77,67.27a50.05,50.05,0,1,1,96.45,0"/><line class="cls-2" x1="41.7" y1="82.59" x2="13.33" y2="82.59"/><line class="cls-2" x1="49.15" y1="93.96" x2="24.56" y2="93.96"/><line class="cls-2" x1="88.33" y1="89.58" x2="68.36" y2="89.58"/><line class="cls-2" x1="62.87" y1="89.58" x2="57.65" y2="89.58"/><path class="cls-3" d="M36.13,60.57v5.74l1-5.7L35,59.43A1.14,1.14,0,0,0,36.13,60.57Z"/><path class="cls-3" d="M33.84,67.46v3.41a1.14,1.14,0,0,0,.72,1.06l-.1-1.31,1.66-4.29H35A1.14,1.14,0,0,0,33.84,67.46Z"/><path class="cls-3" d="M75,80H73.85V72A1.14,1.14,0,0,0,75,70.86V67.46a1.14,1.14,0,0,0-1.14-1.14H72.7V60.57a1.14,1.14,0,0,0,1.14-1.14V56a1.14,1.14,0,0,0-1.14-1.14h-.32l-.84-2.5a14.82,14.82,0,0,0-3.2-8.54,17.79,17.79,0,0,0-7.08-5.66V34.29a1.14,1.14,0,0,0-1.14-1.14H57.85v-5.6a1,1,0,0,0,0-.12H59a1.14,1.14,0,1,0,0-2.29H55.56v-.32a2.27,2.27,0,0,0,0-3.94v-6a1.14,1.14,0,0,0-2.29,0v6a2.27,2.27,0,0,0,0,3.94v.32H49.84a1.14,1.14,0,1,0,0,2.29H51s0,.07,0,.12v5.6H48.7a1.14,1.14,0,0,0-1.14,1.14v3.88A17.76,17.76,0,0,0,40.35,44a14.93,14.93,0,0,0-3.07,8.38l-.84,2.51h-.32A1.14,1.14,0,0,0,35,56v3.43L37,56l1.13-4.36,3.1-7.74,7-3.66.6-.1a14.37,14.37,0,0,1,5.56-1.25,15.94,15.94,0,0,1,12.07,6.29c.38.53.71,1,1,1.53l.33.3.3.84a11,11,0,0,1,.95,2.69l.59,1.67.29,2.58,0,.11h0l.26,2.24,0,0h1.32v1.14H71l.78,1.2L70.49,61v6.9l.8.64H72.7v1.14l-1.14,2.73v4.21L71.9,82H35.31L35,77.63V80H33.84a1.14,1.14,0,0,0-1.14,1.14v1.13H76.13V81.15A1.14,1.14,0,0,0,75,80ZM51.37,27.43h4.22s0,7.69,0,7.69H51.37ZM59,37.29c.47,2.75-4.46,2-6,2s-8.9,1.34-5-3.54l1.81-.33H59Z"/><rect class="cls-4" x="36.18" y="58.23" width="34.29" height="1.14"/><polygon class="cls-4" points="68.51 54.8 38.15 54.8 37.77 55.95 68.89 55.95 68.51 54.8"/><rect class="cls-4" x="36.18" y="73.09" width="1.14" height="8"/><path class="cls-4" d="M69.33,67.4V61.66h-32V67.4h1.15V63.95a1.14,1.14,0,1,1,2.29,0V67.4H43V63.95a1.14,1.14,0,1,1,2.29,0V67.4h2.3V63.95a1.14,1.14,0,1,1,2.29,0V67.4h2.3V63.95a1.14,1.14,0,1,1,2.29,0V67.4h2.29V63.95a1.14,1.14,0,1,1,2.29,0V67.4h2.29V63.95a1.14,1.14,0,1,1,2.29,0V67.4H65.9V63.95a1.14,1.14,0,1,1,2.29,0V67.4Z"/><path class="cls-4" d="M65.4,46.23a15.94,15.94,0,0,0-12.07-6.29,16.1,16.1,0,0,0-12.18,6.41,13.38,13.38,0,0,0-2.61,6.16H68.12A13,13,0,0,0,65.4,46.23ZM45.21,48.46l-1.14,2.29a1.14,1.14,0,1,1-2-1l1.14-2.29a1.14,1.14,0,1,1,2,1Zm4.56.14-1.14,2.17a1.14,1.14,0,0,1-2-1.07l1.14-2.17a1.14,1.14,0,1,1,2,1.07Zm4.7,1.64a1.14,1.14,0,0,1-2.29,0V48.06a1.14,1.14,0,1,1,2.29,0Zm5.1,1A1.14,1.14,0,0,1,58,50.76l-1.14-2.17a1.14,1.14,0,1,1,2-1.07l1.14,2.17A1.14,1.14,0,0,1,59.58,51.24Zm4.55,0a1.14,1.14,0,0,1-1.53-.51l-1.14-2.28a1.14,1.14,0,0,1,2-1l1.14,2.29A1.14,1.14,0,0,1,64.13,51.25Z"/><path class="cls-4" d="M54.49,28.51H52.19v5.72h2.29S54.49,28.55,54.49,28.51Z"/><path class="cls-4" d="M57.9,38.38V36.52H48.76v1.88a14.73,14.73,0,0,1,9.14,0Z"/><rect class="cls-4" x="35.04" y="69.66" width="36.58" height="1.14"/><rect class="cls-4" x="65.9" y="73.09" width="1.14" height="8"/><rect class="cls-4" x="39.61" y="73.09" width="1.14" height="8"/><path class="cls-4" d="M31.61,82.24a1.14,1.14,0,0,1,1.14-1.14H33.9v-8a1.14,1.14,0,0,1-1.14-1.14V68.54A1.14,1.14,0,0,1,33.9,67.4H35V61.66a1.14,1.14,0,0,1-1.14-1.14V57.09A1.14,1.14,0,0,1,35,55.95h.32l.84-2.51a14.93,14.93,0,0,1,3.07-8.38,17.76,17.76,0,0,1,7.21-5.8V35.37a1.14,1.14,0,0,1,1.14-1.14H49.9v-5.6s0-.08,0-.12H48.76a1.14,1.14,0,0,1,0-2.29h3.43v-.32a2.27,2.27,0,0,1,0-3.94v-6a1.14,1.14,0,1,1,2.29,0v6a2.27,2.27,0,0,1,0,3.94v.32H57.9a1.14,1.14,0,1,1,0,2.29H56.73a1,1,0,0,1,0,.12v5.6H59a1.14,1.14,0,0,1,1.14,1.14v3.87a17.8,17.8,0,0,1,7.08,5.66,14.82,14.82,0,0,1,3.2,8.54l.84,2.5h.32a1.14,1.14,0,0,1,1.14,1.14v3.43a1.14,1.14,0,0,1-1.14,1.14V67.4h1.14a1.14,1.14,0,0,1,1.14,1.14v3.41a1.14,1.14,0,0,1-1.14,1.14v8H73.9A1.14,1.14,0,0,1,75,82.24v1.13h7.82V12.12H25.15V83.36h6.46Z"/><rect class="cls-4" x="69.33" y="73.09" width="1.14" height="8"/><rect class="cls-4" x="47.61" y="73.09" width="2.29" height="8"/><rect class="cls-4" x="56.76" y="73.09" width="2.29" height="8"/><rect class="cls-4" x="43.04" y="73.09" width="2.29" height="8"/><rect class="cls-4" x="61.33" y="73.09" width="2.29" height="8"/><rect class="cls-4" x="52.19" y="73.09" width="2.29" height="8"/><path d="M53.33,46.92a1.14,1.14,0,0,0-1.14,1.14v2.17a1.14,1.14,0,0,0,2.29,0V48.06A1.14,1.14,0,0,0,53.33,46.92Z"/><path d="M63.49,47.43a1.14,1.14,0,0,0-2,1l1.14,2.28a1.14,1.14,0,1,0,2-1Z"/><path d="M58.91,47.53a1.14,1.14,0,1,0-2,1.07L58,50.76a1.14,1.14,0,0,0,2-1.07Z"/><path d="M44.7,46.92a1.14,1.14,0,0,0-1.53.51L42,49.72a1.14,1.14,0,1,0,2,1l1.14-2.29A1.14,1.14,0,0,0,44.7,46.92Z"/><path d="M73.9,81.09H72.76v-8a1.14,1.14,0,0,0,1.14-1.14V68.54a1.14,1.14,0,0,0-1.14-1.14H71.62V61.66a1.14,1.14,0,0,0,1.14-1.14V57.09a1.14,1.14,0,0,0-1.14-1.14H71.3l-.84-2.5a14.82,14.82,0,0,0-3.2-8.54,17.8,17.8,0,0,0-7.08-5.66V35.37A1.14,1.14,0,0,0,59,34.23H56.76v-5.6a1,1,0,0,0,0-.12H57.9a1.14,1.14,0,1,0,0-2.29H54.47v-.32a2.27,2.27,0,0,0,0-3.94v-6a1.14,1.14,0,1,0-2.29,0v6a2.27,2.27,0,0,0,0,3.94v.32H48.76a1.14,1.14,0,0,0,0,2.29h1.17s0,.07,0,.12v5.6H47.61a1.14,1.14,0,0,0-1.14,1.14v3.88a17.76,17.76,0,0,0-7.21,5.8,14.93,14.93,0,0,0-3.07,8.38l-.84,2.51H35a1.14,1.14,0,0,0-1.14,1.14v3.43A1.14,1.14,0,0,0,35,61.66V67.4H33.9a1.14,1.14,0,0,0-1.14,1.14v3.41a1.14,1.14,0,0,0,1.14,1.14v8H31.61s0,.51,0,1.14l-.17,1.86H75V82.24A1.14,1.14,0,0,0,73.9,81.09ZM52.19,28.51h2.31s0,5.72,0,5.72H52.19Zm-3.43,8H57.9v1.86a14.73,14.73,0,0,0-9.14,0Zm-7.61,9.84a16.1,16.1,0,0,1,12.18-6.41A15.94,15.94,0,0,1,65.4,46.23a13,13,0,0,1,2.72,6.29H38.53A13.38,13.38,0,0,1,41.14,46.36Zm-3,8.45H68.51l.38,1.14H37.77Zm-2,3.43H70.47v1.14H36.18ZM67,62.81a1.14,1.14,0,0,0-1.14,1.14V67.4H63.62V63.95a1.14,1.14,0,1,0-2.29,0V67.4H59V63.95a1.14,1.14,0,1,0-2.29,0V67.4H54.47V63.95a1.14,1.14,0,1,0-2.29,0V67.4H49.9V63.95a1.14,1.14,0,1,0-2.29,0V67.4h-2.3V63.95a1.14,1.14,0,1,0-2.29,0V67.4h-2.3V63.95a1.14,1.14,0,1,0-2.29,0V67.4H37.33V61.66h32V67.4H68.19V63.95A1.14,1.14,0,0,0,67,62.81ZM37.33,81.09H36.18v-8h1.14Zm3.43,0H39.61v-8h1.14Zm4.57,0H43v-8h2.29Zm4.57,0H47.61v-8H49.9Zm4.57,0H52.19v-8h2.29Zm4.57,0H56.76v-8H59Zm4.57,0H61.33v-8h2.29Zm3.43,0H65.9v-8H67Zm3.43,0H69.33v-8h1.14Zm1.14-10.29H35V69.66H71.62Z"/><path d="M49.29,47a1.14,1.14,0,0,0-1.54.48L46.6,49.7a1.14,1.14,0,0,0,2,1.07l1.14-2.17A1.14,1.14,0,0,0,49.29,47Z"/></svg>