<svg id="Layer_1" data-name="Layer 1" xmlns="http://www.w3.org/2000/svg" viewBox="0 0 108 107.64"><defs><style>.cls-1,.cls-3{fill:#396dff;}.cls-2{fill:none;stroke-linecap:round;stroke-width:3px;}.cls-2,.cls-4{stroke:#000;}.cls-2,.cls-3,.cls-4{stroke-linejoin:round;}.cls-3{stroke:#396dff;stroke-width:2px;}</style></defs><title>chapters</title><polygon class="cls-1" points="20.29 89.4 89.72 89.4 72.63 100.56 53.02 103.73 41.06 102.22 28.09 96.2 20.29 89.4"/><path class="cls-2" d="M94.94,82.62a50.06,50.06,0,0,1-81.89,0"/><path class="cls-2" d="M5.77,67.27a50.05,50.05,0,1,1,96.45,0"/><line class="cls-2" x1="41.7" y1="82.59" x2="13.33" y2="82.59"/><line class="cls-2" x1="49.15" y1="93.96" x2="24.56" y2="93.96"/><line class="cls-2" x1="88.33" y1="89.58" x2="68.36" y2="89.58"/><line class="cls-2" x1="62.87" y1="89.58" x2="57.65" y2="89.58"/><path class="cls-3" d="M69.35,36.24c-.27-.19-.63-.33-.75.1a.8.8,0,0,0,0,.32c0,.12.1.08,0,.2s-.2.1-.27.13,0-.31.06-.24-.11-.16-.2,0c0-.15.13-.23.13-.38s-.05.16,0,.13l-.29,0-.12.35c0-.13-.06-.13-.11,0-2.3-1.89-.33.34-.31.57a.49.49,0,0,1,0,.3c0,.08-.17-.31-.15-.23a.66.66,0,0,0-.28.42c0,.1-.16.28-.16.36s-.43.23-.49.45l.19-.48.56-.43a1,1,0,0,1,.29-.63c.14,0,.47,0,.39-.14s0,0,.08-.11c0,.12.22-.1.22,0s-.11-.16,0-.19c.4-.13.48.1.45-.27.21-.08.61.48.63.25s-.07-.14-.13-.24c0,.05-.05.07,0-.05s.19-.16.33,0h0l.1.08c.07.05.2.05.22-.06s.58.33.58.33c.17.05.4,0,.56,0-.11,0,.08.11.08.2s-.14.14-.17.27a.61.61,0,0,0,.11.44c.19.32.27.43.1.83a1.6,1.6,0,0,0-.06.21c0,.1-.16.32,0,.19-.21.16-.25.11-.24.48s0,.64.23.61.51-.68.76-.87c.5-.36.55.52.63.85a6.12,6.12,0,0,1,.42,1.25.2.2,0,0,0-.32,0c-.1.1-.06.23-.13.33a1.53,1.53,0,0,1-.19.18.48.48,0,0,1-.16.71c-.11.08,0,.22-.07.35-.12.3-.2.35,0,.55s.18.21.39.21a1.26,1.26,0,0,0,.27-.05h.08a2.15,2.15,0,0,0,.17.23.12.12,0,0,0,.16,0c.29-.28.61-1.1,1.1-.81L74,43a1.72,1.72,0,0,1,.72-.64c.07,0,.13-.17.2-.18l.73-1.32c-.22.23-.18.95-.49,1.11a3.44,3.44,0,0,0-.91.74c-.14.15-.29.1-.43.26,0,0-.1.05-.12,0-.25-.14-.73-.19-.55.19.11.23-.24.23-.48.35l-.05,0a2.59,2.59,0,0,0-.17-.22.12.12,0,0,0-.13,0l-.31.05-.13,0h0c-.19-.18-.5-.5,0-.65a.14.14,0,0,0,.1-.16c-.15-.4.08-.46.25-.73s.08-.46.14-.23a.12.12,0,0,0,.19.07c.36-.22.14-.76,0-1.06a3.55,3.55,0,0,1-.33-1c0-.21,0-.45-.17-.62a.65.65,0,0,0-.82,0c-.1.1-.43.86-.63.79a.55.55,0,0,1,0-.51.32.32,0,0,1,.19-.06.14.14,0,0,0,.1-.1c.16-.54.41-.9.13-1.45s0-.13,0-.58a.73.73,0,0,0-.22-.53.12.12,0,0,0-.13,0,.7.7,0,0,1-.6-.11,1,1,0,0,0-.5-.24A.36.36,0,0,0,69.35,36.24Zm3.3,7.34Z"/><path class="cls-3" d="M85.51,33.4a.73.73,0,0,0-.25.74c0,.29-.18,0,.1-.29Z"/><path class="cls-3" d="M89.67,35.48l-.87.43c.17,0-.08,0,0-.13S89.58,35.57,89.67,35.48Z"/><path class="cls-3" d="M23,27.58a1.37,1.37,0,0,0-.13-.82c2,.55,4,1.05,6,1.52s3.9.88,5.86,1.25c1.1.21,2.2.43,3.32.56,4,.44,8.1.86,12.16,1.14,1.15.08,2.29.15,3.44.18a7.49,7.49,0,0,0,2-.1.14.14,0,0,0,.1-.13V30.5c.28.14.12.86.39,1.09s.59.17.9.23c.08,0,0-.05.11,0a.68.68,0,0,1,.11.14.48.48,0,0,0,.26.13.42.42,0,0,0,.27-.08c.21-.16.14-.22.45-.15s.44.31.72.41a2.85,2.85,0,0,0,.3,0c.35.07.46.4.79.44a1.15,1.15,0,0,0,.8-.26.72.72,0,0,0,.42.25.14.14,0,0,0,.13,0,.52.52,0,0,1,.59-.09c-.5.22-.49.37-.86.76-.1.11,0,.21-.08.33s.1,0,0,.16.14.27,0,.43l-.63.47c.18.08-.63.55-.46.51a4.2,4.2,0,0,0,.61-.21,3.6,3.6,0,0,0,.45-.22h0a3.1,3.1,0,0,1-.15.3.14.14,0,0,0,.12.2c.31,0,.47-.27.77-.37s.49.17.6,0,.07-.13.13-.19,0,0,0,0,.25,0,.35-.06a2.05,2.05,0,0,0,.6-.32c.35-.26.56-.66.93-.83a1.94,1.94,0,0,0-.39.51,1.57,1.57,0,0,0-.11.41c0,.05-.1.07-.07.15h0c-.06,0-.08.1.06.09s.25,0,.38,0,.32-.19.5-.18.45.37.53.63l0,0h0l0,.06a.14.14,0,0,0,.24,0,.46.46,0,0,1,.68,0,.13.13,0,0,0,.19,0,1.45,1.45,0,0,1,1.19-.65c.19,0,.22.07.38,0a1.36,1.36,0,0,0,.23-.12.4.4,0,0,0,.12.36c.24.18.7.07,1,0a.89.89,0,0,0,0,.41.47.47,0,0,0,.08.11h-.09c-.41.06-.36.4-1,.13-.14-.06-.2-.2-.38-.19-.44,0-.31.48-.88.3a.13.13,0,0,0-.16.16,2,2,0,0,1,0,.42s-.1-.11-.12-.12a1.14,1.14,0,0,0-1,.13,1.91,1.91,0,0,0-.31.51l-.31,1c.06-.12,0,.12,0,0,.15-.32.31-.61.48-.92.08-.15.16-.35.3-.43s.42-.54.59-.06c0,0,0-.06.1-.05.37.12.42-.22.41-.52.17,0,.34.17.51.09s.27-.24.37-.23.06.07.1.08.2.12.32.15a1.13,1.13,0,0,0,.72-.11.82.82,0,0,1,.61,0,.13.13,0,0,0,.13-.22l0,0,0,0-.12,0a1,1,0,0,1-.27-.28c.07.12,0-.13,0-.19v-.26a.13.13,0,0,0-.17-.13,1.42,1.42,0,0,1-1,.12.55.55,0,0,1,0-.09,2.57,2.57,0,0,0,0-.29.14.14,0,0,0-.2-.12,1.78,1.78,0,0,1-.5.27,2.16,2.16,0,0,0-.31-.1,1,1,0,0,0-.32.05,2,2,0,0,0-.88.61.59.59,0,0,0-.81,0c-.19-.47-.57-.84-1.09-.61l-.22.07a1.16,1.16,0,0,1,.1-.31,3.44,3.44,0,0,1,.24-.31c.12-.12.24-.23.37-.34a.13.13,0,0,0-.06-.24h0l0,0c-1,0-1.32,1.34-2.38,1.3a.14.14,0,0,0-.13.1c-.12.4-.64.45-1,.43.1-.17.19-.39.06-.52s-.53.14-.7.21,0,.08-.26.12c0,0,.1-.27.05-.27.28-.2-.17,0,.07-.27s.18-.26.31-.51c.25-.53,1.2-.88,1.71-1.09a.13.13,0,0,0,0-.23,1.14,1.14,0,0,0-.92-.16c-.21.07-.37.33-.46-.1a.14.14,0,0,0-.22-.06c-.15.15-.55.38-.78.29,0,0-.1-.12-.16-.18-.24-.23-.59-.19-.85-.33s-.56-.42-1-.42-.57.38-.73.06a.13.13,0,0,0-.12-.06c-.26,0-.82,0-1-.25s0-.44-.07-.63a.61.61,0,0,0-.54-.48.12.12,0,0,0-.13.13,4.66,4.66,0,0,0,0,.67.33.33,0,0,1,0,.06l-.11,0c-.29,0-.59,0-.88.05-.91,0-1.81,0-2.71-.08-2.47-.14-5-.36-7.42-.59q-2.92-.27-5.82-.59a72.83,72.83,0,0,1-8-1.47c-2.64-.59-5.27-1.23-7.88-2a.12.12,0,0,0-.12,0,.12.12,0,0,0-.06.07h0a.14.14,0,0,0,0,.07s0,0,0,0c.16.33.42.07.37.42l-.06.3c-.2-.12-.32-.39-.4-.27Zm39.44,7.23h0S62.4,34.85,62.47,34.81ZM55.54,31.1c0,.06,0,0,0,0Z"/><path class="cls-3" d="M65,38.8l.07,0c.22,0,.46-.22.67-.51-.06.19-.13.37-.19.56a4.17,4.17,0,0,0-.18,1c0,.12,0,.22,0,.34s0,0,0,.17a3.22,3.22,0,0,0-.11,1.1,6.27,6.27,0,0,1,.15.75c0,.24,0,1,.37,1.05.08.27.09.38.36.47l0-.69c-.1,0,.09.67,0,.56a.94.94,0,0,1-.21-.46.13.13,0,0,0-.16-.1c-.16.05-.14-1.06-.17-1.18a2.5,2.5,0,0,1-.16-.64,2.46,2.46,0,0,1,.07-.56,1.69,1.69,0,0,0,.07-.44,6.89,6.89,0,0,1,.63-2.79l.07-.11h0a.13.13,0,0,0-.24-.07,6,6,0,0,1-.82,1.17,1,1,0,0,1-.15.13.52.52,0,0,1,0-.09Z"/><path class="cls-3" d="M77.07,39.71l.47-.33c0-.16,0,.29-.1.19-.26-.27-.46-.15,0-.19a2.83,2.83,0,0,0,.52,0c.39-.11.41-.59.83-.28l.31-.05c.07,0-.18.12-.09.1l.07-.18-.31-.26c-.16,0,.57.25.41.31s-.14.1-.2.12,0,.05-.06.05.06,0,0-.07a1.18,1.18,0,0,0-.62-.12c-.23,0-.42.16-.63.18s-.77-.05-.9.32-.25.07-.12.24S77,39.65,77.07,39.71Z"/><path class="cls-3" d="M81.5,35.6l.2-.17c-.1.14.19.14.29,0s-.48.32-.38.2a1.39,1.39,0,0,1,1.12-.27.13.13,0,0,0,.13-.13c0-.22,1.25-.37,1.51-.42s.19-.11.48-.17l.27-.25c-.15,0,.06,0-.08.06l-1.6.32c-.25,0-.75.11-.9.4-.52,0-.77.52-1.32.5a2.28,2.28,0,0,0-2,1.73c-.28-.3,1.92-2.21,2.06-1.78Z"/><path class="cls-3" d="M20,28l.31,0c0-.14-.06.35-.07.25a5.66,5.66,0,0,0-.06-.74c0-.24-.12-.43.14-.31s.22.2.32.27a1.82,1.82,0,0,0,.8.33l.13-.17a1.88,1.88,0,0,1-.7-.3c-.17-.13-.34-.34-.52-.45-.39-.23-.45.21-.43.51S20,27.61,20,28Z"/><path class="cls-3" d="M88.62,39.31l0,.05Z"/><path class="cls-3" d="M84.71,44.17c0,.09,0,0,0,0,0,.21,0-.1,0,.11a2.16,2.16,0,0,1-.29,1,1.57,1.57,0,0,0-.2.29c-.06.15,0,.24-.06.07s.26-.44.21-.44.13.11.12.3l-.6,1.11c-.08,0-.12.28,0,.4s0-.3,0-.3c.14.17.11.58.1.86a1.56,1.56,0,0,1,0,.22c0,.13-.15.12-.22.21a1.41,1.41,0,0,0-.22.94c0,.19-.29,1.28-.18,1.36s.21.4.27.53A5.31,5.31,0,0,1,84,52.31c-.06.12-.2.18-.26.32s0,.21-.1.24-.18-.45-.09-.44,1,1,.16.81l-.17-.5s.19.89.18.9l-.28-.18c.08.15-.06.2-.14.38s-.5.67-.42.69.47-.68.5-.62-.14.13-.19.2c-.2.28-.44.39-.57.31l-.2,1-.53.49c-.05.14-.29.11-.3.25-.18,0-.3.09-.27.29l-.79.95c-.07.32-.33.18-.37.26s-.21-.13-.21,0l.07.12a.41.41,0,0,0-.1.13c0,.12-.11,0-.11.14s-.13.11-.21.13,0,.13,0,.15-.08.09-.1.11.11,0,.07.07-.2.3-.31.38,0,.15-.1.29.27.71-.29.48c-.11,0-.37.21-.3.3s-.58.68-.68.81a1.92,1.92,0,0,0-.45.72c-.17.64-.4.88-.24,1.54a8.9,8.9,0,0,0,.75,1.9,4.23,4.23,0,0,0,.54.89c.21.25.47.45.68.71-.32.46.56,1.54.76,1.85a3.29,3.29,0,0,1,.65,1.53,3.44,3.44,0,0,0,0,1.25c-.19.19-.17.43-.24.69a.39.39,0,0,1-.18.29c-.13.11.21-.34.06-.33s.07.32-.09.39v.22s-.05.41,0,.39.19-.45.33-.59,0-.7.33-.91a.13.13,0,0,0,0-.18c-.19-.32-.05-.87-.05-1.23a2.36,2.36,0,0,0-.35-1.06c-.08-.17-1.39-2-1.1-2.21.05,0,.1-.13,0-.18a6,6,0,0,0-.68-.7,3.64,3.64,0,0,1-.62-1,6.63,6.63,0,0,1-.78-2.29,3.72,3.72,0,0,1,.74-2c.15-.23.77-.48.72-.82,0,0,.09-.13.11-.13s.11-.09.11-.15.21-.67.2-.66.4-.48.48-.46a.14.14,0,0,0,.17-.13s0-.35,0-.36a.12.12,0,0,0,.1-.13,1.06,1.06,0,0,0,1.12-1.09c0-.24.31-.13.36-.3.06,0,.14-.06.13-.13.35-.21,1.22-.69,1-1.43-.14-.41.36-.12.73-.28s.57-.32.2-.46c.44-.11.28-.51.07-.67.16,0,0-.08.11-.11a.17.17,0,0,0,.1-.1,1.75,1.75,0,0,1,.29-.5c.07-.11.15-.12.17-.25a3,3,0,0,0-.22-1c-.16-.34-.35-.67-.52-1a5.82,5.82,0,0,1,.1-1.5,1.06,1.06,0,0,1,.14-.57c.06-.1.18-.16.23-.24a.49.49,0,0,0,.08-.15,2.44,2.44,0,0,0,0-.88c-.07-.41-.6,0-.23,0s.23-.92.54-1,.12.65-.39.61c0,.08,0-.19,0-.23.27-.16.19-.48.32-.72a2.06,2.06,0,0,0,.23-.3,2.14,2.14,0,0,0,.17-.56c.1-.49.09-.13,0-.61Z"/><path class="cls-3" d="M89.29,39.32c-.11.08-.38.34-.54.25,0,0-.16-.29-.14-.26a1.11,1.11,0,0,0-.36-.42c-.07,0-.2,0-.25-.06-.26-.15-.08-.3-.05-.52s-.15-.43-.1-.7.14-.33.18-.5c.08-.32.19-.08,0,0l-.5.48.26-.33c.15,0,0-.18-.09.22a.87.87,0,0,0-.05.37,1,1,0,0,0,.06.24c0,.05.08,0,.1.07s-.15.39-.14.58a.33.33,0,0,0,.23.34c.08,0,.18,0,.24,0s.29.3.36.42a.58.58,0,0,0,.32.29l-.09.07a.3.3,0,0,0-.4-.09c-.16.1-.18.34-.31.45s-.11-.29-.23-.2.15.11.14.12l.16.25c.09,0-.21.15-.12.1l.25-.18c.12-.11.19-.38.29-.18a.14.14,0,0,0,.23,0c.11-.22.48-.25.69-.27a.14.14,0,0,0,.13-.17,3,3,0,0,0-.07-.3A.13.13,0,0,0,89.29,39.32Z"/><path class="cls-3" d="M91.24,32.36a.16.16,0,0,0-.14,0c-.24.17-.15.19-.24,0s0-.19-.08-.29a.62.62,0,0,0-.31-.35.56.56,0,0,0-.37,0l-.51-1.85a1.12,1.12,0,0,0-.18-.5,2.11,2.11,0,0,0-.67-.34s0,0,0,0l0,0-.14-.06a.13.13,0,0,0-.18.18c0,.08-.23.25-.31.27a.27.27,0,0,1-.35-.13c-.05-.07,0-.16-.11-.21-.3-.12-.48.51-.54.68s0-.08.13.09l.92-.07s-.48-.35-.59,0a1.8,1.8,0,0,0,.07-.3.16.16,0,0,0,0,0c.26.4,1,.16,1.1-.22a3.35,3.35,0,0,1,.6.31l0,.07.13.45c.15.55.3,1.1.45,1.65h0l0,.15a.13.13,0,0,0,.19.07c.61-.29.32.83.81.82.14,0,.22-.15.25-.14.33.14,0,.71-.12.87s-.1.24-.29.39c-.06,0-.16-.18.12-.16l-.13.3,0,0s.1-.13.11-.12c.72-.35.07.35-.12.46-.37.21.55-.67.71-1.07A.77.77,0,0,0,91.24,32.36Z"/><path class="cls-3" d="M86.83,42.25l-1.58,1.32c.09-.21.74-.66.83-.81a2.09,2.09,0,0,1,1.06-.89,2.33,2.33,0,0,0,.76-.79Z"/><path class="cls-3" d="M52.14,71.69a3.58,3.58,0,0,0,.23,1s.11.18.11.17a.74.74,0,0,1-.35.18s0-.11,0-.13-.12-.17-.24-.23,0-.08-.22-.09l.12.5c.22,0,0-.23.14-.06s.41.38.71.13c.06-.06.16-.16.16-.25s-.15-.39-.19-.53a3.32,3.32,0,0,1-.14-.72c0-.63.41-1,.73-1.52.11-.16,1.41-.75,1.53-.89l-2,1.19C52.47,71,52.1,71.18,52.14,71.69Z"/><path class="cls-3" d="M44,67.17l-1.4,1.13c.11.06.57-.77.71-.82s.25-.22.36-.37Z"/><path class="cls-3" d="M65.45,66.42c-.2-.1-.53-.06-.61-.26s.33.23.47,0,.34-.1.34-.16l-.81.12.35.15L65,66.17,64.72,66s-.18.18-.15.18.14-.05.18-.06-.28,0-.23.15l-.08-.09a.13.13,0,0,0-.14,0c-.1.05,0,.12-.12.17s-.25.08-.24.13.06.27-.05.29.29-.27.22-.28l0,.63.31.16c.14-.08-.68-.57-.5-.61s-.3.31-.13.37.35,0,.4-.22a.92.92,0,0,0,0-.3l0,0c.19.1.05-.26.24.13a.13.13,0,0,0,.12.06c.38,0,.42.29.7.39a.49.49,0,0,0,.48-.11C65.95,66.78,65.63,66.5,65.45,66.42Zm-.05.48c-.12,0-.21-.19-.34-.29l.14,0C65.33,66.68,65.68,67,65.4,66.89Z"/><path class="cls-4" d="M21.61,27.74c2.08.58,4.17,1.1,6.27,1.58,1.94.45,3.9.88,5.86,1.25,1.1.21,2.2.43,3.32.56,4,.44,8.1.86,12.16,1.14,1.15.08,2.29.15,3.44.18a7.49,7.49,0,0,0,2-.1.14.14,0,0,0,.1-.13v-.85l-.13.13c.45,0,.21.86.52,1.12s.59.17.9.23c.08,0,0-.05.11,0a.68.68,0,0,1,.11.14.48.48,0,0,0,.26.13.42.42,0,0,0,.27-.08c.21-.16.14-.22.45-.15s.44.31.72.41a2.85,2.85,0,0,0,.3,0c.35.07.46.4.79.44a1.21,1.21,0,0,0,.94-.37l-.22-.06a.62.62,0,0,0,.51.42.14.14,0,0,0,.13,0c.22-.26.61-.11.87,0v-.23a4.92,4.92,0,0,0-1.67,1,1.09,1.09,0,0,0-.21.33c-.07.17.06,0-.06.18a7.17,7.17,0,0,1-.88.82c-.12.1-.58.2-.21.43a1,1,0,0,0,.67,0,4.2,4.2,0,0,0,.61-.21A3.61,3.61,0,0,0,60,35.9c.14-.08.15-.11,0,0a3.18,3.18,0,0,1-.17.33.14.14,0,0,0,.12.2,2.25,2.25,0,0,0,.92-.07,1.08,1.08,0,0,0,.45-.25c.05-.06.07-.13.13-.19s-.16.05,0,0a2.54,2.54,0,0,1,.39-.07,2.05,2.05,0,0,0,.6-.32c.48-.35.69-1,1.37-.92l-.06-.24a2.53,2.53,0,0,0-.77.83,1.57,1.57,0,0,0-.11.41c0,.05-.1.07-.07.15.06.23.27.14.44.06s.32-.19.5-.18c.34,0,.49.44.56.71a.14.14,0,0,0,.24,0,.46.46,0,0,1,.68,0,.13.13,0,0,0,.19,0,1.45,1.45,0,0,1,1.19-.65c.19,0,.22.07.38,0a3.62,3.62,0,0,0,.44-.24l-.2-.12c0,.2-.07.46.11.6s.91,0,1.18-.11l-.17-.13a1.64,1.64,0,0,0,0,.6c.07.16.32.31.44.43l.13-.22a1.21,1.21,0,0,0-.58-.11c-.41.06-.36.4-1,.13-.14-.06-.2-.2-.38-.19-.44,0-.31.48-.88.3a.13.13,0,0,0-.16.16,2,2,0,0,1,0,.42s-.1-.11-.12-.12a1.14,1.14,0,0,0-1,.13,1.91,1.91,0,0,0-.31.51c-.21.38-.41.76-.58,1.15-.07.18-.42.91,0,1s1.1-1.2,1.27-1.47L65,38.29a14.66,14.66,0,0,0-.54,1.63,4.17,4.17,0,0,0-.18,1c0,.12,0,.22,0,.34s0,0,0,.17a3.22,3.22,0,0,0-.11,1.1,6.27,6.27,0,0,1,.15.75c0,.26,0,1.2.5,1l-.16-.1c.07.34.3.78.7.79s.92-.67,1.19-1a1.86,1.86,0,0,0,.14-1.61,7.69,7.69,0,0,1-.5-1.62,5.9,5.9,0,0,1,.29-1.57.13.13,0,0,0,.13-.22c-.14-.17.21-.27.3-.4s.13-.25.19-.37l-.24-.06V39a.13.13,0,0,0,.17.13c.44-.15.48-.65.42-1l-.1.16c.2-.07.6-.21.62-.48s-.07-.14-.13-.24c0,.05-.05.07,0-.05s.25-.12.43,0,.2.05.22-.06.58.33.58.33c.17.05.4,0,.56,0-.11,0,.08.11.08.2s-.14.14-.17.27a.61.61,0,0,0,.11.44c.19.32.27.43.1.83a1.6,1.6,0,0,0-.06.21c0,.1-.16.32,0,.19-.21.16-.48.13-.46.5s.18.62.45.59.51-.68.76-.87c.5-.36.55.52.63.85s.61,1.27.37,1.42l.19.07c-.06-.24-.25-.43-.45-.21s-.06.23-.13.33a1.53,1.53,0,0,1-.19.18.78.78,0,0,0-.14.79l.1-.16a.63.63,0,0,0-.37.38c-.12.3,0,.39.17.59s.18.21.39.21a1.26,1.26,0,0,0,.27-.05c.05,0,.18,0,.1,0s.12.2.16.25a.13.13,0,0,0,.16,0A2.5,2.5,0,0,1,73,44.44a.13.13,0,0,0,.15-.06,1.8,1.8,0,0,1,.77-.83c.16-.07.32-.05.48-.12a2.49,2.49,0,0,0,.38-.27A14.75,14.75,0,0,0,76.06,42c.15-.15.48-.4.46-.64s-.13-.21-.22-.31c-.26-.27-.37-.59.13-.63a2.83,2.83,0,0,0,.52,0c.39-.11.6-.31,1,0a.13.13,0,0,0,.16,0,.8.8,0,0,1,.76-.2.13.13,0,0,0,.16-.1.85.85,0,0,1,.05-.22.39.39,0,0,1,.39-.34c.06,0,.13,0,.19,0s.25-.11.25-.31-.24-.43-.26-.5c-.13-.3-.1-.46-.44-.62l0,.21c.36-.4.71-.82,1-1.26.1-.13.18-.3.27-.42a1.39,1.39,0,0,1,1.12-.27.13.13,0,0,0,.13-.13c0-.22,1.25-.37,1.51-.42l1.57-.32a.12.12,0,0,0,.1-.13A.9.9,0,0,1,85,35c.1-.17.42-.11.61-.11a.13.13,0,0,0,.13-.13,1.61,1.61,0,0,1,.41-1.25c.12-.08.29-.08.26-.27s-.1-.15-.17-.19-.22-.07-.3-.13-.13.16-.05-.13.2-.21.27-.35a.67.67,0,0,0,0-.45.57.57,0,0,1,0-.37,4.83,4.83,0,0,1,.2-.67,3.4,3.4,0,0,0,.24-.58c0-.22-.11-.14-.05,0a.65.65,0,0,0,.05.13c.32.49,1.34,0,1.09-.49l-.18.18a5.57,5.57,0,0,1,.79.4s0-.1,0,.07l.13.45c.17.6.33,1.2.5,1.81a.13.13,0,0,0,.19.07c.61-.29.32.83.81.82.14,0,.22-.15.25-.14.33.14,0,.71-.12.87s-.44.35-.65.53h.19c-.29-.31-.8.2-1,.37l.21,0c-.14-.26-.4-.35-.56-.06a1.34,1.34,0,0,0-.13.53c0,.3.07.2-.16.33-.41.22-.21.61-.87.54a.12.12,0,0,0-.13.13,6.92,6.92,0,0,1-.35,1.61.87.87,0,0,0-.05.37,1,1,0,0,0,.06.24c0,.05.08,0,.1.07s-.15.39-.14.58a.33.33,0,0,0,.23.34c.08,0,.18,0,.24,0s.29.3.36.42c.27.48.55.39,1,.05l-.19-.07a3,3,0,0,0,.07.3l.13-.17c-.31,0-.77.1-.92.41h.23c-.1-.2-.29-.38-.51-.24s-.18.34-.31.45-.3.06-.42.16-.2.29-.44.38-1.33,1.76-2,2c-.11,0-1.17.13-.79.54.07.08.31.06.26,0s0,.3,0,.37a4.28,4.28,0,0,1,.05.63,2.16,2.16,0,0,1-.29,1,1.57,1.57,0,0,0-.2.29c-.06.15,0,.24-.06.07a.14.14,0,0,0-.13-.1c-.38,0-.94.21-.78.49a3.47,3.47,0,0,0,.33.48,2.1,2.1,0,0,0,.29.21c.14.17.11.58.1.86a1.56,1.56,0,0,1,0,.22c0,.13-.15.12-.22.21a1.41,1.41,0,0,0-.22.94c0,.19-.29,1.28-.18,1.36s.21.4.27.53A5.32,5.32,0,0,1,83,53.36c-.06.12-.2.18-.26.32s0,.21-.1.24a.73.73,0,0,1-.48,0,.13.13,0,0,0-.18.18.6.6,0,0,1,.07.58.13.13,0,0,0,.07.19c.06,0,.23,0,.25.1s-.11.17-.19.2a3.56,3.56,0,0,0-.9.39,2,2,0,0,0-.89,1.55l.13-.13a1.53,1.53,0,0,0-1.36.68,2.23,2.23,0,0,0-.3.48.7.7,0,0,0-.07.25s0,.33.08.13c0,0-.13.07-.15.12a1.26,1.26,0,0,0-.06.49l.17-.13a.54.54,0,0,0-.38.06.65.65,0,0,0-.18.2s0,.15,0,.17-.13.07-.17.11-.2.24-.31.32-.36.19-.37.43l.13-.13h-.25a.13.13,0,0,0-.1.22c.18.2-.37.6-.48.74a3.11,3.11,0,0,0-.39,1A3.71,3.71,0,0,0,76.21,64a8.9,8.9,0,0,0,.75,1.9,4.24,4.24,0,0,0,.54.89c.23.27.52.48.74.77,0-.06,0-.12,0-.18-.6.36.44,1.63.65,2a3.29,3.29,0,0,1,.65,1.53,2.78,2.78,0,0,0,.08,1.35c0-.06,0-.12,0-.18-.3.2-.24.48-.32.77a.39.39,0,0,1-.18.29.74.74,0,0,1-.42.19c-.13,0-.23,0-.35,0a1.12,1.12,0,0,0-.1.12c.1,0,.11,0,0,0a.53.53,0,0,1-.1-.43,1.78,1.78,0,0,0-.16-.32c-.18-.29-.43-.61-.81-.55a.17.17,0,0,0-.1.1c0-.06-.24-.37-.27-.42a1.17,1.17,0,0,0-.15-.36c-.05-.07-.34-.24-.29-.14,0-.06,0-.27,0-.34,0-.62-.31-.7-.62-.17l.21,0a11.38,11.38,0,0,1-.81-.93.16.16,0,0,1,0-.12c0,.07,0,.1,0,0a2.41,2.41,0,0,1,.23-.23c.1-.11.26-.25.29-.4s-.35-.39-.57-.42c-.52-.06-.1.38-.2.63l.22-.06c-.69-.65.07-1.39-.24-2.11,0-.11-.12-.14-.18-.22a1.2,1.2,0,0,0-.25-.32.64.64,0,0,0-.71,0l.22.1A.73.73,0,0,0,74,66.3c0-.05-.12-.05-.16-.08s-.15-.27-.23-.34-.11,0-.16-.06-.27-.27-.42-.37a2.43,2.43,0,0,0-.44-.15.73.73,0,0,0-.73.17c-.12.12-.16.26-.26.39a1.43,1.43,0,0,1-1,.44l.12.2c.46-.63-1.25-1.2-1.63-1.27a3.92,3.92,0,0,0-1.61.12c-.29.07-1,.14-1.14.4l.23.14c.15-.31.15-.86-.25-1a.28.28,0,0,0-.36.13.83.83,0,0,0-.1.22c0,.07,0,.24,0,.22s-.3,0-.38,0a.12.12,0,0,0-.13.13v.14l.13-.13a1.43,1.43,0,0,0-.31,0c-.17.07.08.12,0,0s-.13-.18-.3-.19a.8.8,0,0,0-.27.06c0,.08,0,.12,0,.07l-.05,0c-.16,0-.23-.08-.4,0s-.3.32-.45.45-.33.17-.42.34a.37.37,0,0,0,.64.38c0-.05.16-.2,0-.22.46.08-.23.33-.21.31a.46.46,0,0,0,0,.7c.15.12.38.08.55.15s.49.34.2.26-.27-.32-.49-.37-.14,0-.25-.08-.15-.16-.21-.21a.13.13,0,0,0-.14,0l-.3.16a.14.14,0,0,0-.06.15c0,.1.06.27-.05.29s-.16-.17-.23-.18-.14.06-.23.1-.22,0-.32.12-.08.19-.14.22-.51-.07-.5-.06,0-.07,0-.1c-.1-.21,0-.39-.23-.55-.07-.05-.4-.08-.32,0s-.06-.2-.12-.25a.42.42,0,0,0-.27-.17c-.11,0-.33.1-.26.11-.15,0-.24-.24-.43-.18s-.16.46-.12.64l.13-.17a4.74,4.74,0,0,1-1-.08c-.24-.05-.43-.21-.68-.25a4.08,4.08,0,0,0-2.6.71.14.14,0,0,0-.06.15c.05.15,0,.19.12.06a.7.7,0,0,1-.21.13,4.61,4.61,0,0,0-.69.59,4,4,0,0,1-1.07.53,4.91,4.91,0,0,0-.88.59c-.23.18-.51.3-.72.49a3.1,3.1,0,0,0-.92,2.46,3.58,3.58,0,0,0,.23,1s.11.18.11.17a.74.74,0,0,1-.35.18s0-.11,0-.13-.12-.17-.24-.23a1.75,1.75,0,0,0-.67-.08c-.27,0-.42-.25-.67-.34a2,2,0,0,1-.73-.27c-.42-.35-.07-.91-.74-1.07l.1.16a.93.93,0,0,0,0-.63c0-.11,0,.11,0,0s0-.08,0-.12a.79.79,0,0,0,0-.32c-.08-.21-.31-.25-.45-.39a2,2,0,0,1-.59-.91.13.13,0,0,0-.22-.1,3.29,3.29,0,0,0-.18-.63c-.11-.26-.36-.54-.26-.86a.14.14,0,0,0,0-.13c-.19-.19-1.18-1-1.11-1.19a.13.13,0,0,0-.15-.19,2,2,0,0,1-1.42-.17.13.13,0,0,0-.16,0c-.23.22-.5.27-.68.53s-.31.53-.48.78-.4.18-.61,0a5.93,5.93,0,0,0-1.11-.77,1.08,1.08,0,0,1-.54-1.13,1.34,1.34,0,0,0-.31-1,4.35,4.35,0,0,0-.62-.62,2.75,2.75,0,0,1-.37-.46,2.22,2.22,0,0,0-.49-.51,1.11,1.11,0,0,0-.29-.13S38,63,38,63a.86.86,0,0,0-.67-.55c-.8-.16-1.65-.19-2.46-.3a.12.12,0,0,0-.13.1c-.06.3-.13.6-.18.9l.16-.1-1.91-.3c-.77-.12-1.6-.17-2.36-.36a6.25,6.25,0,0,1-1.09-.62l-2.48-1.49-1.68-1c0,.06,0,.12,0,.18.06-.11.13-.21.18-.32a.14.14,0,0,0-.12-.2l-3.66-.41.13.13A4.74,4.74,0,0,0,21.61,57a1.7,1.7,0,0,0-.79-1c-.11-.05-.22-.07-.32-.13s0,.15,0,0,0-.3-.08-.42c-.2-.41-.54-.25-.83-.44s-.18-.34-.29-.5a1.32,1.32,0,0,0-.24-.24,2.35,2.35,0,0,0-.55-.31c-.23-.1-.76-.13-.88-.24s.16-.69.19-1-.23-.55-.36-.79-.57-1.11-.46-1.2a.14.14,0,0,0,0-.16,3.24,3.24,0,0,0-.24-.41l-.13-.15c-.07-.08-.05-.07,0,0-.05-.24.23-.41.34-.64a.45.45,0,0,0-.1-.6c-.1-.07-.29-.06-.32-.08a1.35,1.35,0,0,1-.23-.61.9.9,0,0,1,.05-.48,1.12,1.12,0,0,0,.06-.2.73.73,0,0,1,.05-.14l-.15.08a.45.45,0,0,0,.24.56c.63.27.2-.87.07-1.07l-.15.19.21,0a.14.14,0,0,0,.15-.06c.07-.17.16-.44-.05-.55s-.54.22-.62.46l.24,0a2.19,2.19,0,0,0-.25-.36c-.17-.19-.13-.11-.12-.4a1,1,0,0,0-.17-.54,6.41,6.41,0,0,1-.45-.94c0-.08,0,.12,0,0a2,2,0,0,1,0-.25v-.52l-.2.12c.67.39.49-.76.41-1s-.5-.91-.2-1.27a6.33,6.33,0,0,0,.42-.49,2.81,2.81,0,0,0,.52-1.93,5.2,5.2,0,0,1,.06-1.51,2.45,2.45,0,0,1,.44-.8,11,11,0,0,0,1.86-3.92c0-.25,0-.52.1-.77s.06-.32.08-.49.13-.36,0-.23c.14-.12.38-.11.42-.34s-.57-.41.07-.39a.13.13,0,0,0,.06-.24c-.39-.2-.26-.92-.27-1.29a5.66,5.66,0,0,0-.06-.74c0-.24-.12-.43.14-.31s.22.2.32.27a3.16,3.16,0,0,0,1.73.69c.06,0,.14-.06.13-.13s0-.33.13-.23l0-.24a.37.37,0,0,0-.24.55c.05.15.25.53.46.5s.12-.08.14-.17a.63.63,0,0,0,0-.24,1.26,1.26,0,0,1,0-.4,2.19,2.19,0,0,0-.17-1.34c-.07-.15-.31,0-.23.14a1.5,1.5,0,0,1,.16,1,1.86,1.86,0,0,0-.07.42s.13.57.19.38c0,0-.11-.14-.13-.17s-.23-.29,0-.35a.13.13,0,0,0,0-.24c-.38-.24-.54.12-.52.45L21.3,29a2.81,2.81,0,0,1-1.51-.58c-.17-.13-.34-.34-.52-.45-.39-.23-.45.21-.43.51s.08.75.08,1.2-.06,1,.4,1.21l.06-.24c-.2,0-.61,0-.6.27s.35.36,0,.46a.12.12,0,0,0-.1.1,13.75,13.75,0,0,1-.55,2.62,17,17,0,0,1-1.74,3.16A2.62,2.62,0,0,0,16,38.84a3.39,3.39,0,0,1-.16,1.86,2.38,2.38,0,0,1-.43.68c-.12.11-.25.14-.34.3-.29.53.22,1.19.33,1.72,0,.08.13.59-.08.46a.13.13,0,0,0-.2.12,3.64,3.64,0,0,0,0,.9,5.74,5.74,0,0,0,.43.89,2.12,2.12,0,0,1,.2.41s0-.06,0,.08a.79.79,0,0,0,0,.22c0,.29.3.42.43.67a.13.13,0,0,0,.24,0c.06-.19.11-.25.23-.26s-.13.21,0,.1,0-.05-.12-.07-.21.1-.15.19.35.68.29.71-.13-.42-.13-.43c0-.2-.16-.32-.33-.14a1.56,1.56,0,0,0,.13,1.8c.19.21.51.18.25.49-.06.08-.18.08-.25.21s0,.43.11.61.15.26.24.37.05.16.05,0c0,.16-.06.24,0,.43a4.49,4.49,0,0,0,.32.78,7,7,0,0,0,.4.73.74.74,0,0,1,.11.17c0-.15,0,0-.06.08A1.33,1.33,0,0,0,17.44,54a.12.12,0,0,0,.1.1,2.87,2.87,0,0,1,1.39.49c.22.18.2.36.37.58a.71.71,0,0,0,.4.27c.29.07.51,0,.57.39a.78.78,0,0,1,0,.22.14.14,0,0,0,.1.13c1.26.27,1.17,1.5,1.17,2.49a.13.13,0,0,0,.13.13l3.66.41-.12-.2c-.06.11-.13.21-.18.32a.14.14,0,0,0,0,.18L29,61.83a8.15,8.15,0,0,0,1.3.78,4,4,0,0,0,.62.1l1.34.21,2.38.37a.13.13,0,0,0,.16-.1l.1-.44a1.58,1.58,0,0,0,.06-.31c0-.22.11,0-.1,0l.86.11c.56.06,2-.05,2.07.76a.13.13,0,0,0,.06.12c.58.25.82.87,1.3,1.26a2.09,2.09,0,0,1,.67.85,1.63,1.63,0,0,1,0,.64,1.39,1.39,0,0,0,.46,1.1,12.48,12.48,0,0,1,1.08.63c.24.22.48.62.87.49s.58-.76.79-1.07a.71.71,0,0,1,.18-.18l.25-.15.17-.14c.05-.07.07-.06.05,0a4.68,4.68,0,0,1,.46.15,1.65,1.65,0,0,0,.45,0,2.46,2.46,0,0,0,.56-.06L45,66.77c-.15.3.14.5.34.7l.55.56c.06.06.15.13.2.19s0,0,0,.05a2,2,0,0,0,.19.69c.12.23.16.48.26.71s.26.39.46.22l-.22-.1c0,.32.33.65.51.89a3.44,3.44,0,0,0,.24.31c.17.17.39.25.29.52a.12.12,0,0,0,0,.13c.13.13.06.33,0,.46a.13.13,0,0,0,.1.16c.41.1.27.33.35.6a.87.87,0,0,0,.31.44,1.7,1.7,0,0,0,.58.26l.22,0c.12.05,0,0,.16.12a1,1,0,0,0,.56.22c.29,0,.46,0,.68.17s.41.38.71.13c.06-.06.16-.16.16-.25s-.15-.39-.19-.53a3.32,3.32,0,0,1-.14-.72A3,3,0,0,1,51.84,71a4.59,4.59,0,0,1,.35-.44c.05-.06.2-.17.1-.11a9.51,9.51,0,0,0,1-.65,5.62,5.62,0,0,1,1.35-.69.91.91,0,0,0,.4-.33,3,3,0,0,1,.76-.58.14.14,0,0,0,.06-.15s-.07-.15-.06-.18a2.14,2.14,0,0,0,.45-.16,4.7,4.7,0,0,1,1-.34,2.15,2.15,0,0,1,1,0,4.37,4.37,0,0,0,.79.27,4.77,4.77,0,0,0,.87.05.14.14,0,0,0,.13-.17c-.05-.23-.08-.38.13-.19a.15.15,0,0,0,.16,0c.3-.14.38,0,.4.17a.14.14,0,0,0,.13.1c.26,0,.46.16.4.43a.14.14,0,0,0,.06.15c.23.17.6.36.89.18s.14-.24.32-.29.16,0,.33.1.35,0,.4-.22a2,2,0,0,0,0-.36c0-.07,0,0,0,.08l.07,0c.19.1.05-.26.24.13a.13.13,0,0,0,.12.06c.38,0,.42.29.7.39a.49.49,0,0,0,.48-.11c.16-.23-.16-.51-.34-.59s-.53-.06-.61-.26.24-.16.38-.35,0-.6-.33-.64a.12.12,0,0,0-.13.1c-.06.21-.42.38-.26.11.06-.11.22-.15.31-.22s.39-.61.6-.4a.13.13,0,0,0,.16,0c.21-.15.33-.16.36,0a.12.12,0,0,0,.13.1l.41,0a.13.13,0,0,0,.13-.13v-.14l-.13.13.43,0a.14.14,0,0,0,.13-.1c0-.06.05-.48.19-.46s.08.12.1.14a.43.43,0,0,1,0,.48.14.14,0,0,0,.23.14c.08-.13.64-.18.81-.23a4,4,0,0,1,1.5-.17c.22,0,1.85.55,1.6.89a.14.14,0,0,0,.12.2A1.81,1.81,0,0,0,71.74,66c.08-.1.11-.19.18-.29a.58.58,0,0,1,.45-.25c.15,0-.07,0,0,0a2.93,2.93,0,0,1,1,.56c.12.11.48.49.48.69a.13.13,0,0,0,.22.1c.25-.22.48.24.58.36s.1,0,.15.19a1.61,1.61,0,0,1,0,.71,1.42,1.42,0,0,0,.33,1.43.14.14,0,0,0,.22-.06c.08-.21,0-.26,0-.46-.13,0-.13,0,0,0l.08,0s.23.05.25.11-.32.3-.37.36-.16.12-.18.21.16.39.29.53.43.49.65.73a.14.14,0,0,0,.21,0,1.25,1.25,0,0,1,.17-.24c-.05-.06-.06-.05,0,0a.64.64,0,0,1,0,.2,1.83,1.83,0,0,1,0,.34.12.12,0,0,0,.06.15c.44.21.32.73.74,1,.08,0,.16.11.26.07s.12-.12.14-.12.36.35.44.48a1,1,0,0,1,.14.49c0,.2.17.4.39.4a.14.14,0,0,0,.13-.1c0-.05.37-.06.44-.08a1.41,1.41,0,0,0,.51-.35c.26-.27,0-.7.33-.91a.13.13,0,0,0,0-.18c-.19-.32-.05-.87-.05-1.23a2.36,2.36,0,0,0-.35-1.06c-.08-.17-1.39-2-1.1-2.21.05,0,.1-.13,0-.18a6,6,0,0,0-.68-.7,3.64,3.64,0,0,1-.62-1,6.63,6.63,0,0,1-.78-2.29,3.85,3.85,0,0,1,.5-2.1c.18-.29.86-.74.48-1.15l-.1.22h.25a.13.13,0,0,0,.13-.13s.63-.59.62-.58.4-.48.48-.46a.14.14,0,0,0,.17-.13s0-.35,0-.36a.12.12,0,0,0,.1-.13,1.5,1.5,0,0,1,.63-1.15,1.32,1.32,0,0,1,.85-.23c.06,0,.14-.06.13-.13a1.75,1.75,0,0,1,.68-1.26c.32-.3.65-.3,1-.45.57-.23.25-.69-.19-.78l.07.19a.84.84,0,0,0-.07-.85l-.18.18a1,1,0,0,0,.75,0,.17.17,0,0,0,.1-.1,1.75,1.75,0,0,1,.29-.5c.07-.11.15-.12.17-.25a3,3,0,0,0-.22-1c-.16-.34-.35-.67-.52-1a5.82,5.82,0,0,1,.1-1.5,1.06,1.06,0,0,1,.14-.57c.06-.1.18-.16.23-.24a.49.49,0,0,0,.08-.15,2.44,2.44,0,0,0,0-.88c-.07-.41-.32-.44-.55-.74s-.13-.4.24-.41c.18,0,0,.29.06.4a.13.13,0,0,0,.19.07c.27-.16.19-.48.32-.72a2.06,2.06,0,0,0,.23-.3,2.14,2.14,0,0,0,.17-.56,5,5,0,0,0,0-1.49.14.14,0,0,0-.1-.13c-.12,0-.34,0-.12,0l.35,0a2.93,2.93,0,0,0,1-.45,4.56,4.56,0,0,0,1-.94,2.34,2.34,0,0,1,.49-.76c.07-.06.1-.18.17-.24s-.06,0,0,0,.22-.05.32-.12l.25-.18c.12-.11.19-.38.29-.18a.14.14,0,0,0,.23,0c.11-.22.48-.25.69-.27a.14.14,0,0,0,.13-.17,3,3,0,0,0-.07-.3.13.13,0,0,0-.19-.07c-.11.08-.38.34-.54.25,0,0-.23-.42-.11-.21a1.23,1.23,0,0,0-.39-.48c-.07,0-.2,0-.25-.06-.26-.15-.08-.3-.05-.52s-.15-.43-.1-.7.14-.33.18-.5a8.06,8.06,0,0,0,.19-1.25l-.13.13a.89.89,0,0,0,.74-.22c.16-.15.18-.35.41-.41a.12.12,0,0,0,.1-.13c0-.06,0-1,.22-.7a.14.14,0,0,0,.21,0s.5-.5.6-.37a.14.14,0,0,0,.19,0c.33-.26.75-.5.91-.9a.77.77,0,0,0-.24-.94.16.16,0,0,0-.14,0c-.24.17-.15.19-.24,0s0-.19-.08-.29a.62.62,0,0,0-.31-.35.62.62,0,0,0-.53,0l.19.07-.54-2a1.12,1.12,0,0,0-.18-.5,3.24,3.24,0,0,0-.83-.41.13.13,0,0,0-.18.18c0,.08-.23.25-.31.27a.27.27,0,0,1-.35-.13c-.05-.07,0-.16-.11-.21-.3-.12-.48.51-.54.68a3.39,3.39,0,0,0-.3,1.11c0,.14.14.35.07.49s0,0,0,0-.12.08-.15.15a1,1,0,0,0-.13.52.14.14,0,0,0,.1.13c.11,0,.41.19.44.12l-.14.06a1.08,1.08,0,0,0-.35.43,2.66,2.66,0,0,0-.2,1l.13-.13c-.41,0-.79-.22-.88.36a.8.8,0,0,0,0,.32c.07.17,0,0,.07,0a5.11,5.11,0,0,0-.68.14l-1.6.32c-.29.05-.93.12-1,.53l.13-.13a1.42,1.42,0,0,0-1.38.5A15.56,15.56,0,0,1,79,38.22a.14.14,0,0,0,0,.21c.27.13.24.33.35.54s.27.26.23.35-.27,0-.35,0c-.33.07-.49.45-.52.76l.16-.1a1.2,1.2,0,0,0-.7,0c-.07,0-.14.1-.2.12s0,.05-.06.05.06,0,0-.07a1.18,1.18,0,0,0-.62-.12c-.23,0-.42.16-.63.18s-.77-.05-.9.32a.8.8,0,0,0,.22.65c.21.26.26.26,0,.56s-.57.5-.82.77a3.75,3.75,0,0,1-.82.69c-.36.19-.71.21-1,.54-.15.16-.23.37-.38.53s.13,0,0,0a1.76,1.76,0,0,0-.4.06,3.46,3.46,0,0,0-.76.27c-.22.13-.05,0,0,0a1.94,1.94,0,0,0-.18-.23.12.12,0,0,0-.13,0l-.31.05-.16,0c-.07,0,.13.1,0,0s-.5-.5,0-.65a.14.14,0,0,0,.1-.16c-.15-.4.08-.46.25-.73s.08-.46.14-.23a.12.12,0,0,0,.19.07c.36-.22.14-.76,0-1.06a3.55,3.55,0,0,1-.33-1c0-.21,0-.45-.17-.62a.65.65,0,0,0-.82,0c-.1.1-.43.86-.63.79a.55.55,0,0,1,0-.51.32.32,0,0,1,.19-.06.14.14,0,0,0,.1-.1c.16-.54.41-.9.13-1.45s0-.13,0-.58a.73.73,0,0,0-.22-.53.12.12,0,0,0-.13,0,.7.7,0,0,1-.6-.11,1,1,0,0,0-.5-.24.28.28,0,0,0-.31.21l.22-.06c-.27-.22-.73-.49-.87,0a.8.8,0,0,0,0,.32c0,.12.1.08,0,.2s-.2.1-.27.13a.14.14,0,0,0-.1.16c0,.22,0,.62-.23.73l.17.13V38.2c0-.13-.19-.19-.24-.06a1,1,0,0,1-.25.37c-.11.1-.23.12-.29.25a.44.44,0,0,0,.1.46l.13-.22c-.22-.05-.4,0-.44.24a2.14,2.14,0,0,0,0,.27c0,.27-.17.58-.2.88a2.25,2.25,0,0,0,.07,1,6,6,0,0,1,.51,1.75,1.09,1.09,0,0,1-.32.87c-.21.24-.65,1.13-1.09.69a.94.94,0,0,1-.21-.46.13.13,0,0,0-.16-.1c-.16.05-.14-1.06-.17-1.18a2.5,2.5,0,0,1-.16-.64,2.46,2.46,0,0,1,.07-.56,1.69,1.69,0,0,0,.07-.44,7.1,7.1,0,0,1,.67-2.88c.05-.15-.17-.22-.24-.11a6,6,0,0,1-.82,1.17s-.13.15-.19.16,0,0,0,0c0-.25.19-.62.29-.83s.31-.61.48-.92c.08-.15.16-.35.3-.43a.88.88,0,0,1,.59-.06s.05.07.11.08c.45.15.43-.39.39-.7L66,37a.93.93,0,0,0,.68,0c.08,0,.27-.24.37-.23s.06.07.1.08.2.12.32.15a1.13,1.13,0,0,0,.72-.11.82.82,0,0,1,.61,0,.13.13,0,0,0,.13-.22c-.12-.12-.33-.24-.4-.39.07.12,0-.13,0-.19v-.26a.13.13,0,0,0-.17-.13,1.36,1.36,0,0,1-1,.12c.07,0,0,.11,0-.08a2.57,2.57,0,0,0,0-.29.14.14,0,0,0-.2-.12,1.78,1.78,0,0,1-.5.27,2.16,2.16,0,0,0-.31-.1,1,1,0,0,0-.32.05,2,2,0,0,0-1,.7h.19a.64.64,0,0,0-1.1,0l.24,0c-.15-.56-.56-1.08-1.15-.81-.1,0-.34.08-.38.16s-.52.25,0,.18c0,0,0-.1.06-.12s.08-.36.16-.46a3.44,3.44,0,0,1,.24-.31c.12-.12.24-.23.37-.34a.13.13,0,0,0-.06-.24c-1.09-.05-1.35,1.34-2.43,1.31a.14.14,0,0,0-.13.1c-.15.48-.87.46-1.27.42l.12.2c.08-.15.36-.53.17-.71s-.53.14-.7.21a2.87,2.87,0,0,1-.78.27,2.41,2.41,0,0,0-.39,0c-.06,0-.24.16-.07.19s.22-.1.29-.14a6.94,6.94,0,0,0,.82-.75c.21-.21.18-.26.31-.51.25-.53,1.2-.88,1.71-1.09a.13.13,0,0,0,0-.23,1.14,1.14,0,0,0-.92-.16c-.21.07-.37.33-.46-.1a.14.14,0,0,0-.22-.06c-.15.15-.55.38-.78.29,0,0-.1-.12-.16-.18-.24-.23-.59-.19-.85-.33s-.56-.42-1-.42-.57.38-.73.06a.13.13,0,0,0-.12-.06c-.26,0-.82,0-1-.25s0-.44-.07-.63a.61.61,0,0,0-.54-.48.12.12,0,0,0-.13.13,4.66,4.66,0,0,0,0,.67c0,.22-.06.08.05.05l-.16,0c-.29,0-.59,0-.88.05-.91,0-1.81,0-2.71-.08-2.47-.14-5-.36-7.42-.59q-2.92-.27-5.82-.59a72.83,72.83,0,0,1-8-1.47c-2.65-.59-5.3-1.24-7.92-2C21.52,27.44,21.44,27.7,21.61,27.74Z"/></svg>