<svg id="Layer_1" data-name="Layer 1" xmlns="http://www.w3.org/2000/svg" viewBox="0 0 108 107.64"><defs><style>.cls-1,.cls-3{fill:#396dff;}.cls-2{fill:none;stroke:#000;stroke-linecap:round;stroke-linejoin:round;stroke-width:3px;}.cls-3{stroke:#396dff;stroke-miterlimit:10;}</style></defs><title>communications</title><polygon class="cls-1" points="20.29 89.4 89.72 89.4 72.63 100.56 53.02 103.73 41.06 102.22 28.09 96.2 20.29 89.4"/><path class="cls-2" d="M94.94,82.62a50.06,50.06,0,0,1-81.89,0"/><path class="cls-2" d="M5.77,67.27a50.05,50.05,0,1,1,96.45,0"/><line class="cls-2" x1="41.7" y1="82.59" x2="13.33" y2="82.59"/><line class="cls-2" x1="49.15" y1="93.96" x2="24.56" y2="93.96"/><line class="cls-2" x1="88.33" y1="89.58" x2="68.36" y2="89.58"/><line class="cls-2" x1="62.87" y1="89.58" x2="57.65" y2="89.58"/><path class="cls-3" d="M74.56,22.49H42.7a5,5,0,0,0-4.95,4.95v16H33A4.14,4.14,0,0,0,29,47.54V63.17A4.14,4.14,0,0,0,33,67.32h1.82L34.49,71a1.64,1.64,0,0,0,2.75,1.39l5.6-5.07,9.58-.05a4.13,4.13,0,0,0,4.05-4.14V54.36H57l-3.52-.25-.25,10.71-1.7,2-10.2-.34-5.78,5.1-.25-4.76-4.76-.51-.85-19L31,46.12,38.06,46V27.6l2.8-2,33.31-.17.24.31h.15a1.61,1.61,0,0,1,1.65,1.65V51.05L74.34,53.6l-6.28.17.51,5.12.59,5-9.6-9.35-.36,0L69.55,64.87a1.65,1.65,0,0,0,2.82-1.34l-.91-9.17h3.11a5,5,0,0,0,4.95-4.95v-22A5,5,0,0,0,74.56,22.49Z"/><path d="M73.4,23.66a5,5,0,0,1,4.95,4.95v22a5,5,0,0,1-4.95,4.95H70.29l.91,9.17A1.65,1.65,0,0,1,68.38,66L57.87,55.53H55.3V64.3a4.13,4.13,0,0,1-4.05,4.14l-9.58.05-5.6,5.07a1.64,1.64,0,0,1-2.75-1.39l.36-3.67H31.86a4.14,4.14,0,0,1-4.07-4.16V48.71a4.14,4.14,0,0,1,4.05-4.16h4.74v-16a5,5,0,0,1,4.95-4.95H73.4Zm0,3.3H41.53a1.61,1.61,0,0,0-1.65,1.65V44.54l11.35,0a4.12,4.12,0,0,1,4.07,4.14v3.57h3.26a1.65,1.65,0,0,1,1.17.48l7.71,7.71L66.8,54a1.65,1.65,0,0,1,1.49-1.8H73.4A1.61,1.61,0,0,0,75,50.58v-22A1.61,1.61,0,0,0,73.4,27ZM51.23,47.82l-19.37,0a.79.79,0,0,0-.77.86V64.34a.79.79,0,0,0,.77.86h3.66A1.72,1.72,0,0,1,37.15,67L37,68.23l2.88-2.61a1.67,1.67,0,0,1,1.1-.43l10.22-.05A.77.77,0,0,0,52,64.3V48.66a.78.78,0,0,0-.77-.84Z"/></svg>