<svg id="Layer_1" data-name="Layer 1" xmlns="http://www.w3.org/2000/svg" viewBox="0 0 108 107.64"><defs><style>.cls-1,.cls-3{fill:#396dff;}.cls-2{fill:none;stroke:#000;stroke-linecap:round;stroke-linejoin:round;stroke-width:3px;}.cls-3{stroke:#396dff;stroke-miterlimit:10;}</style></defs><title>education</title><polygon class="cls-1" points="20.29 89.4 89.72 89.4 72.63 100.56 53.02 103.73 41.06 102.22 28.09 96.2 20.29 89.4"/><path class="cls-2" d="M94.94,82.62a50.06,50.06,0,0,1-81.89,0"/><path class="cls-2" d="M5.77,67.27a50.05,50.05,0,1,1,96.45,0"/><line class="cls-2" x1="41.7" y1="82.59" x2="13.33" y2="82.59"/><line class="cls-2" x1="49.15" y1="93.96" x2="24.56" y2="93.96"/><line class="cls-2" x1="88.33" y1="89.58" x2="68.36" y2="89.58"/><line class="cls-2" x1="62.87" y1="89.58" x2="57.65" y2="89.58"/><path class="cls-3" d="M23.67,62.17,25.28,62H37.47V59.78H24.17a1.11,1.11,0,0,0-1.11,1.11V80.84a1.6,1.6,0,0,0,.24.75Z"/><path class="cls-3" d="M87.34,80.84V60.89a1.11,1.11,0,0,0-1.11-1.11H72.93V44.72l2.54,2.54A1.11,1.11,0,1,0,77,45.7l-4.43-4.43h0v0L56.31,26.05V17.11A1.11,1.11,0,0,0,55.2,16H46.89a1.11,1.11,0,0,0-1.11,1.11v5a1.11,1.11,0,0,0,1.11,1.11h7.2v2.84L37.82,41.24v0h0L33.36,45.7a1.11,1.11,0,1,0,1.57,1.57l2.54-2.54v-1L53.61,27.56l1.06,1,.53-.5L70.72,42.53V62h2.22v0H85.12V82.24H23.69c.15.23.31.48.48.79H86.23C87.56,83,87.34,81.45,87.34,80.84Z"/><path d="M85.14,60.87H71.84V45.82l2.54,2.54a1.11,1.11,0,1,0,1.57-1.57l-4.43-4.43h0v0L55.22,27.14V18.2a1.11,1.11,0,0,0-1.11-1.11H45.8a1.11,1.11,0,0,0-1.11,1.11v5A1.11,1.11,0,0,0,45.8,24.3H53v2.84L36.73,42.33v0h0l-4.43,4.43a1.11,1.11,0,1,0,1.57,1.57l2.54-2.54V60.87H23.08A1.11,1.11,0,0,0,22,62V81.93c0,.61.5,1.11,1.11,2.19H85.14c1.33,0,1.11-1.57,1.11-2.19V62A1.11,1.11,0,0,0,85.14,60.87ZM46.9,22.08V19.31H53v2.77ZM59.65,80.82H48.57V69.19a1.11,1.11,0,0,1,1.11-1.11h8.87a1.11,1.11,0,0,1,1.11,1.11Zm24.38,0H61.87V69.19a3.33,3.33,0,0,0-3.32-3.32H49.68a3.33,3.33,0,0,0-3.32,3.32V80.82H24.18V63.09H36.38v15a1.11,1.11,0,1,0,2.22,0V43.62L54.11,29.14,69.62,43.62V78.05a1.11,1.11,0,1,0,2.22,0v-15H84Z"/><path d="M59.1,42a5,5,0,1,0-5,5A5,5,0,0,0,59.1,42Zm-5,2.77A2.77,2.77,0,1,1,56.88,42,2.77,2.77,0,0,1,54.11,44.8Z"/><path d="M74.61,68.63h6.65a1.11,1.11,0,0,0,0-2.22H74.61a1.11,1.11,0,0,0,0,2.22Z"/><path d="M81.26,73.06H74.61a1.11,1.11,0,0,0,0,2.22h6.65a1.11,1.11,0,0,0,0-2.22Z"/><path d="M33.61,66.41H27a1.11,1.11,0,1,0,0,2.22h6.65a1.11,1.11,0,1,0,0-2.22Z"/><path d="M33.61,73.06H27a1.11,1.11,0,1,0,0,2.22h6.65a1.11,1.11,0,1,0,0-2.22Z"/><path d="M50.78,52h-7.2a1.11,1.11,0,0,0-1.11,1.11v6.65a1.11,1.11,0,0,0,1.11,1.11h7.2a1.11,1.11,0,0,0,1.11-1.11V53.12A1.11,1.11,0,0,0,50.78,52Zm-1.11,6.65h-5V54.22h5Z"/><path d="M64.64,52h-7.2a1.11,1.11,0,0,0-1.11,1.11v6.65a1.11,1.11,0,0,0,1.11,1.11h7.2a1.11,1.11,0,0,0,1.11-1.11V53.12A1.11,1.11,0,0,0,64.64,52Zm-1.11,6.65h-5V54.22h5Z"/><path d="M56.88,73.06H55.22a1.11,1.11,0,1,0,0,2.22h1.66a1.11,1.11,0,1,0,0-2.22Z"/></svg>