<svg id="Layer_1" data-name="Layer 1" xmlns="http://www.w3.org/2000/svg" viewBox="0 0 108 107.64"><defs><style>.cls-1,.cls-3{fill:#396dff;}.cls-2{fill:none;stroke:#000;stroke-linecap:round;stroke-linejoin:round;stroke-width:3px;}.cls-3{stroke:#396dff;stroke-miterlimit:10;}</style></defs><title>fundraising</title><polygon class="cls-1" points="20.29 89.4 89.72 89.4 72.63 100.56 53.02 103.73 41.06 102.22 28.09 96.2 20.29 89.4"/><path class="cls-2" d="M94.94,82.62a50.06,50.06,0,0,1-81.89,0"/><path class="cls-2" d="M5.77,67.27a50.05,50.05,0,1,1,96.45,0"/><line class="cls-2" x1="41.7" y1="82.59" x2="13.33" y2="82.59"/><line class="cls-2" x1="49.15" y1="93.96" x2="24.56" y2="93.96"/><line class="cls-2" x1="88.33" y1="89.58" x2="68.36" y2="89.58"/><line class="cls-2" x1="62.87" y1="89.58" x2="57.65" y2="89.58"/><path class="cls-3" d="M82,45.79c2.29-4.77,3-10.31-.38-15.94a17.3,17.3,0,0,0-15.08-8.21,17.45,17.45,0,0,0-12.41,4.87,17.87,17.87,0,0,0-12.41-4.87,17.19,17.19,0,0,0-15.08,8.21c-7.35,12.22,4.58,24,9.64,28.92,3.72,3.63,14,12.41,16.32,14.32l1.43,1.34,1.53-1.34L62,67.65a15.44,15.44,0,0,0,8.3,2.48,15,15,0,0,0,15-15A14.65,14.65,0,0,0,82,45.79Zm-1.79-2.13L77.37,50,75.94,60.19l-2.07,6.2L64.5,65.6l-4.93.79-5.72,5.25-3.18-1.27-15.9-14L27.3,45.25l-1.91-6.52,2.7-7.79,5.09-4.77,7.95-.32L47.81,27l5.08,4,5.89-4.43,4.93-.79,6.2.32,7.95,4.29,2.54,6.84Z"/><path d="M70.79,53c.29.1.48.29.76.29A1.27,1.27,0,0,0,72.69,52a1.54,1.54,0,0,0-.29-.86,3.66,3.66,0,0,0-2.77-1V49.4c0-.29-.1-.48-.48-.48s-.48.19-.48.48v.76a3.91,3.91,0,0,0-3.82,3.91c0,1.24.57,2.1,2.1,2.86a7.24,7.24,0,0,0,1.72.57v2.67c-1.15,0-2-.76-2.67-.76a1.38,1.38,0,0,0-1.24,1.43c0,1.24,1.62,1.72,2.86,1.91a3.58,3.58,0,0,0,1,.1v.76c0,.29.1.48.48.48s.48-.19.48-.48v-.76a4.06,4.06,0,0,0,3.91-4,3.19,3.19,0,0,0-.29-1.43c-.57-1.34-2.1-1.91-3.53-2.39V52.54A5.84,5.84,0,0,1,70.79,53Zm10-6a14.65,14.65,0,0,1,3.24,9.35,15,15,0,0,1-15,15,15.44,15.44,0,0,1-8.3-2.48L54.37,74.3l-1.53,1.34L51.41,74.3C49.12,72.4,38.81,63.62,35.09,60c-5.06-5-17-16.7-9.64-28.92a17.19,17.19,0,0,1,15.08-8.21,17.87,17.87,0,0,1,12.41,4.87,17.45,17.45,0,0,1,12.41-4.87,17.3,17.3,0,0,1,15.08,8.21C83.76,36.7,83.1,42.24,80.81,47ZM77,43.67a11.43,11.43,0,0,0-.76-10.21,12.59,12.59,0,0,0-11-5.82,12.41,12.41,0,0,0-10.4,5.15l-2,2.86-1.91-2.86a12.41,12.41,0,0,0-10.4-5.15,12.59,12.59,0,0,0-11,5.82c-4.77,7.92,1.43,15.75,8.88,23,3.05,3.05,10.78,9.73,14.41,12.79,1.15-1,2.67-2.29,4.39-3.82a14.59,14.59,0,0,1-3.15-9.16,15,15,0,0,1,15-15A15.77,15.77,0,0,1,77,43.67Z"/><path d="M69.64,60.18V57.79a1.17,1.17,0,0,1,1,1.24A1.07,1.07,0,0,1,69.64,60.18Z"/><path d="M67.64,53.69a1.13,1.13,0,0,1,1-1.15v2.1A1,1,0,0,1,67.64,53.69Z"/></svg>